<mxfile host="app.diagrams.net" agent="Mozilla/5.0 (Windows NT 10.0; Win64; x64) AppleWebKit/537.36 (KHTML, like Gecko) Chrome/131.0.0.0 Safari/537.36" version="24.9.3">
  <diagram name="หน้า-1" id="FkZn_RTfhnsMaUjU3jkQ">
    <mxGraphModel dx="1050" dy="530" grid="1" gridSize="10" guides="1" tooltips="1" connect="1" arrows="1" fold="1" page="1" pageScale="1" pageWidth="827" pageHeight="1169" math="0" shadow="0">
      <root>
        <mxCell id="0" />
        <mxCell id="1" parent="0" />
        <mxCell id="j8fnoNDseinUQ5CjElPg-3" value="" style="edgeStyle=orthogonalEdgeStyle;rounded=0;orthogonalLoop=1;jettySize=auto;html=1;" edge="1" parent="1" source="j8fnoNDseinUQ5CjElPg-1" target="j8fnoNDseinUQ5CjElPg-2">
          <mxGeometry relative="1" as="geometry" />
        </mxCell>
        <mxCell id="j8fnoNDseinUQ5CjElPg-1" value="Start" style="ellipse;whiteSpace=wrap;html=1;" vertex="1" parent="1">
          <mxGeometry x="354" y="10" width="120" height="80" as="geometry" />
        </mxCell>
        <mxCell id="j8fnoNDseinUQ5CjElPg-5" value="" style="edgeStyle=orthogonalEdgeStyle;rounded=0;orthogonalLoop=1;jettySize=auto;html=1;" edge="1" parent="1" source="j8fnoNDseinUQ5CjElPg-2" target="j8fnoNDseinUQ5CjElPg-4">
          <mxGeometry relative="1" as="geometry" />
        </mxCell>
        <mxCell id="j8fnoNDseinUQ5CjElPg-2" value="Input Num" style="shape=parallelogram;perimeter=parallelogramPerimeter;whiteSpace=wrap;html=1;fixedSize=1;" vertex="1" parent="1">
          <mxGeometry x="354" y="180" width="120" height="60" as="geometry" />
        </mxCell>
        <mxCell id="j8fnoNDseinUQ5CjElPg-7" value="" style="edgeStyle=orthogonalEdgeStyle;rounded=0;orthogonalLoop=1;jettySize=auto;html=1;" edge="1" parent="1" source="j8fnoNDseinUQ5CjElPg-4" target="j8fnoNDseinUQ5CjElPg-6">
          <mxGeometry relative="1" as="geometry" />
        </mxCell>
        <mxCell id="j8fnoNDseinUQ5CjElPg-4" value="9(1) + 99(2) + ... +&amp;nbsp;&lt;div&gt;9...(num)&lt;/div&gt;" style="whiteSpace=wrap;html=1;" vertex="1" parent="1">
          <mxGeometry x="354" y="320" width="120" height="60" as="geometry" />
        </mxCell>
        <mxCell id="j8fnoNDseinUQ5CjElPg-9" value="" style="edgeStyle=orthogonalEdgeStyle;rounded=0;orthogonalLoop=1;jettySize=auto;html=1;" edge="1" parent="1" source="j8fnoNDseinUQ5CjElPg-6" target="j8fnoNDseinUQ5CjElPg-8">
          <mxGeometry relative="1" as="geometry" />
        </mxCell>
        <mxCell id="j8fnoNDseinUQ5CjElPg-6" value="Output 9(1) + 99(2) + ... + 9...(num)" style="shape=parallelogram;perimeter=parallelogramPerimeter;whiteSpace=wrap;html=1;fixedSize=1;" vertex="1" parent="1">
          <mxGeometry x="336" y="460" width="156" height="60" as="geometry" />
        </mxCell>
        <mxCell id="j8fnoNDseinUQ5CjElPg-11" value="" style="edgeStyle=orthogonalEdgeStyle;rounded=0;orthogonalLoop=1;jettySize=auto;html=1;" edge="1" parent="1" source="j8fnoNDseinUQ5CjElPg-8" target="j8fnoNDseinUQ5CjElPg-10">
          <mxGeometry relative="1" as="geometry" />
        </mxCell>
        <mxCell id="j8fnoNDseinUQ5CjElPg-8" value="Output sum" style="shape=parallelogram;perimeter=parallelogramPerimeter;whiteSpace=wrap;html=1;fixedSize=1;" vertex="1" parent="1">
          <mxGeometry x="354" y="600" width="120" height="60" as="geometry" />
        </mxCell>
        <mxCell id="j8fnoNDseinUQ5CjElPg-10" value="End" style="ellipse;whiteSpace=wrap;html=1;" vertex="1" parent="1">
          <mxGeometry x="354" y="740" width="120" height="80" as="geometry" />
        </mxCell>
      </root>
    </mxGraphModel>
  </diagram>
</mxfile>
